<svg width="40" height="41" viewBox="0 0 40 41" fill="none" xmlns="http://www.w3.org/2000/svg">
<path d="M13.379 33.206C13.379 33.3714 13.1935 33.5037 12.9597 33.5037C12.6935 33.5286 12.5081 33.3962 12.5081 33.206C12.5081 33.0406 12.6935 32.9082 12.9274 32.9082C13.1694 32.8834 13.379 33.0158 13.379 33.206ZM10.871 32.8338C10.8145 32.9992 10.9758 33.1894 11.2177 33.2391C11.4274 33.3218 11.6694 33.2391 11.7177 33.0736C11.7661 32.9082 11.6129 32.718 11.371 32.6435C11.1613 32.5856 10.9274 32.6684 10.871 32.8338ZM14.4355 32.6932C14.2016 32.7511 14.0403 32.9082 14.0645 33.0985C14.0887 33.2639 14.2984 33.3714 14.5403 33.3135C14.7742 33.2556 14.9355 33.0985 14.9113 32.933C14.8871 32.7759 14.6694 32.6684 14.4355 32.6932ZM19.7419 0.998047C8.55645 0.998047 0 9.70759 0 21.1797C0 30.3524 5.62903 38.2018 13.6694 40.9643C14.7016 41.1546 15.0645 40.5012 15.0645 39.9635C15.0645 39.4507 15.0403 36.622 15.0403 34.885C15.0403 34.885 9.39516 36.1257 8.20968 32.4202C8.20968 32.4202 7.29032 30.0133 5.96774 29.393C5.96774 29.393 4.12097 28.0944 6.09677 28.1192C6.09677 28.1192 8.10484 28.2846 9.20968 30.2532C10.9758 33.4459 13.9355 32.5278 15.0887 31.9819C15.2742 30.6585 15.7984 29.7404 16.379 29.1945C11.871 28.6817 7.32258 28.0117 7.32258 20.0548C7.32258 17.7803 7.93548 16.6388 9.22581 15.1831C9.01613 14.6455 8.33064 12.4288 9.43548 9.56698C11.121 9.02935 15 11.8002 15 11.8002C16.6129 11.337 18.3468 11.0971 20.0645 11.0971C21.7823 11.0971 23.5161 11.337 25.129 11.8002C25.129 11.8002 29.0081 9.02108 30.6935 9.56698C31.7984 12.4371 31.1129 14.6455 30.9032 15.1831C32.1936 16.6471 32.9839 17.7885 32.9839 20.0548C32.9839 28.0365 28.2339 28.6734 23.7258 29.1945C24.4677 29.8479 25.0968 31.0886 25.0968 33.0323C25.0968 35.8197 25.0726 39.2688 25.0726 39.947C25.0726 40.4846 25.4435 41.138 26.4677 40.9478C34.5323 38.2018 40 30.3524 40 21.1797C40 9.70759 30.9274 0.998047 19.7419 0.998047ZM7.83871 29.5253C7.73387 29.608 7.75806 29.7983 7.89516 29.9554C8.02419 30.0878 8.20968 30.1457 8.31452 30.0381C8.41935 29.9554 8.39516 29.7652 8.25806 29.608C8.12903 29.4757 7.94355 29.4178 7.83871 29.5253ZM6.96774 28.8554C6.91129 28.9629 6.99194 29.0952 7.15323 29.1779C7.28226 29.2606 7.44355 29.2358 7.5 29.12C7.55645 29.0125 7.47581 28.8802 7.31452 28.7975C7.15323 28.7478 7.02419 28.7726 6.96774 28.8554ZM9.58065 31.7999C9.45161 31.9074 9.5 32.1556 9.68548 32.3127C9.87097 32.5029 10.1048 32.5278 10.2097 32.3954C10.3145 32.2879 10.2661 32.0398 10.1048 31.8826C9.92742 31.6924 9.68548 31.6675 9.58065 31.7999ZM8.66129 30.584C8.53226 30.6667 8.53226 30.8818 8.66129 31.072C8.79032 31.2623 9.00806 31.345 9.1129 31.2623C9.24193 31.1547 9.24193 30.9397 9.1129 30.7495C9 30.5592 8.79032 30.4765 8.66129 30.584Z" fill="#5050BA"/>
</svg>
