<svg width="101" height="82" viewBox="0 0 101 82" fill="none" xmlns="http://www.w3.org/2000/svg">
<g id="icon_Blender">
<g class="color-group2">
<path id="Vector" d="M81.2 60.3487C77.1599 64.4706 71.5087 66.8014 65.3873 66.8096C59.2618 66.8219 53.6065 64.5074 49.5664 60.3978C47.5914 58.3941 46.1438 56.096 45.2442 53.6385C44.365 51.2259 44.0297 48.6456 44.2546 46.0899C44.4713 43.5955 45.2074 41.1707 46.4219 38.9789C47.6036 36.8362 49.227 34.902 51.2307 33.2664C55.1563 30.0646 60.1532 28.3349 65.3873 28.3267C70.6214 28.3185 75.6142 30.04 79.5439 33.2255C81.5435 34.857 83.1669 36.783 84.3445 38.9217C85.559 41.1134 86.2992 43.5342 86.5159 46.0286C86.7408 48.5884 86.4014 51.1645 85.5222 53.5812C84.6226 56.0347 83.171 58.3369 81.2 60.3487Z" fill="white"/>
</g>
<g class="color-group">
<path id="Vector_2" d="M52.3266 46.3516C52.5106 43.019 54.1462 40.0789 56.6079 37.9975C59.0246 35.9488 62.2795 34.7017 65.8248 34.7017C69.3742 34.7057 72.6251 35.9529 75.0418 37.9975C77.5034 40.083 79.1391 43.019 79.3272 46.3516C79.5153 49.7783 78.1372 52.9638 75.7206 55.3232C73.2589 57.7235 69.7504 59.2324 65.8248 59.2324C61.8993 59.2324 58.3867 57.7235 55.925 55.3232C53.5124 52.9638 52.1385 49.7783 52.3266 46.3516Z" fill="#005385"/>
<path id="Vector_3" d="M30.8218 53.0987C30.8463 54.399 31.2634 56.9343 31.885 58.9175C33.1976 63.1089 35.4221 66.9895 38.5217 70.408C41.703 73.9206 45.6122 76.7421 50.1348 78.7417C54.8905 80.8476 60.0387 81.923 65.3832 81.9108C70.7277 81.9026 75.876 80.8108 80.6275 78.6885C85.146 76.6644 89.0553 73.8347 92.2325 70.314C95.328 66.8791 97.5484 62.9944 98.861 58.803C99.5153 56.7135 99.9364 54.5585 100.108 52.379C100.272 50.2526 100.202 48.1099 99.9037 45.9958C99.3149 41.8495 97.8796 37.9607 95.6715 34.4154C93.6474 31.1604 91.0467 28.3062 87.9512 25.9018L87.9553 25.8977L56.7224 1.91899C56.6979 1.89855 56.6693 1.87401 56.6447 1.85357C54.5879 0.283339 51.1448 0.287428 48.8917 1.86584C46.61 3.4606 46.3524 6.0981 48.3765 7.76238L48.3683 7.76647L61.3963 18.3655L21.6785 18.4064H21.6253C18.3458 18.4105 15.189 20.5655 14.5634 23.2848C13.9255 26.0572 16.1541 28.3553 19.5685 28.3716L19.5644 28.3839L39.6952 28.343L3.77214 55.9161C3.72716 55.9529 3.67809 55.9856 3.6372 56.0183C0.251387 58.6108 -0.844502 62.929 1.28594 65.6605C3.45318 68.437 8.05756 68.4411 11.4843 65.6728L31.0876 49.6311C31.0876 49.6311 30.8014 51.7983 30.8218 53.0987ZM81.2 60.3487C77.1599 64.4706 71.5088 66.8014 65.3873 66.8096C59.2618 66.8218 53.6065 64.5074 49.5664 60.3978C47.5914 58.3941 46.1438 56.096 45.2442 53.6384C44.365 51.2259 44.0297 48.6456 44.2546 46.0899C44.4714 43.5955 45.2074 41.1707 46.4219 38.9789C47.6036 36.8362 49.227 34.902 51.2307 33.2663C55.1563 30.0645 60.1532 28.3348 65.3873 28.3267C70.6214 28.3185 75.6142 30.04 79.5439 33.2255C81.5435 34.857 83.1669 36.783 84.3446 38.9216C85.559 41.1134 86.2992 43.5342 86.5159 46.0286C86.7408 48.5884 86.4014 51.1645 85.5222 53.5812C84.6226 56.0347 83.171 58.3369 81.2 60.3487Z" fill="#FF7021"/>
</g>
</g>
</svg>
