<svg width="40" height="41" viewBox="0 0 40 41" fill="none" xmlns="http://www.w3.org/2000/svg">
<circle cx="20" cy="20.998" r="20" fill="#C14747"/>
<path d="M32.5264 18.1895C32.7168 18.0381 33 18.1797 33 18.4189V28.4043C33 29.6982 31.9502 30.748 30.6562 30.748H10.3438C9.0498 30.748 8 29.6982 8 28.4043V18.4238C8 18.1797 8.27832 18.043 8.47363 18.1943C9.56738 19.0439 11.0176 20.123 15.998 23.7412C17.0283 24.4932 18.7666 26.0752 20.5 26.0654C22.2432 26.0801 24.0156 24.4639 25.0068 23.7412C29.9873 20.123 31.4326 19.0391 32.5264 18.1895ZM20.5 24.498C21.6328 24.5176 23.2637 23.0723 24.084 22.4766C30.5635 17.7744 31.0566 17.3643 32.5508 16.1924C32.834 15.9727 33 15.6309 33 15.2695V14.3418C33 13.0479 31.9502 11.998 30.6562 11.998H10.3438C9.0498 11.998 8 13.0479 8 14.3418V15.2695C8 15.6309 8.16602 15.9678 8.44922 16.1924C9.94336 17.3594 10.4365 17.7744 16.916 22.4766C17.7363 23.0723 19.3672 24.5176 20.5 24.498Z" fill="white"/>
</svg>
