<svg width="101" height="101" viewBox="0 0 101 101" fill="none" xmlns="http://www.w3.org/2000/svg">
<g id="icon_JS">
<g class="color-group">
<path id="Vector" d="M0.53772 10.7297C0.53772 5.20689 5.01487 0.729736 10.5377 0.729736H90.5377C96.0606 0.729736 100.538 5.20689 100.538 10.7297V90.7297C100.538 96.2526 96.0606 100.73 90.5377 100.73H10.5377C5.01487 100.73 0.53772 96.2526 0.53772 90.7297V10.7297Z" fill="#F0DB4F"/>
</g>
<g class="color-group2">
<path id="Vector_2" d="M92.3535 76.8807C91.6216 72.3179 88.6463 68.4871 79.8345 64.913C76.7737 63.5061 73.3611 62.4986 72.344 60.1792C71.9828 58.8293 71.9353 58.0689 72.1634 57.2514C72.8193 54.5993 75.9847 53.7723 78.4942 54.5328C80.1102 55.0746 81.6406 56.3199 82.5626 58.3065C86.8782 55.5119 86.8687 55.5309 89.882 53.6108C88.7794 51.8998 88.19 51.1107 87.4676 50.3789C84.8725 47.4796 81.3364 45.9872 75.6805 46.1013C74.7014 46.2249 73.7129 46.3579 72.7337 46.4815C69.9106 47.1945 67.2204 48.6773 65.6425 50.664C60.9086 56.0348 62.2584 65.4358 68.0189 69.3047C73.6938 73.5633 82.0303 74.5329 83.095 78.5157C84.1311 83.3922 79.5114 84.97 74.92 84.4093C71.536 83.7059 69.654 81.9853 67.6197 78.8579C63.8745 81.0252 63.8745 81.0252 60.0247 83.2401C60.9372 85.2363 61.8972 86.1393 63.4277 87.8694C70.6711 95.2173 88.7984 94.856 92.0494 83.7344C92.1824 83.354 93.057 80.8065 92.3535 76.8807ZM54.901 46.6906H45.5474C45.5474 54.7704 45.5095 62.7932 45.5095 70.8731C45.5095 76.0156 45.7756 80.7305 44.9391 82.1753C43.5703 85.0175 40.0247 84.6658 38.4087 84.1144C36.7642 83.3064 35.9277 82.1562 34.9581 80.5309C34.692 80.0651 34.4924 79.7039 34.4257 79.6753C31.8878 81.2248 29.3592 82.7836 26.8212 84.3331C28.0855 86.9282 29.9485 89.181 32.3345 90.6448C35.8991 92.7836 40.69 93.4395 45.6996 92.2893C48.9601 91.3387 51.7736 89.3712 53.247 86.3769C55.3763 82.451 54.92 77.6982 54.901 72.4415C54.9486 63.8674 54.901 55.2932 54.901 46.6906Z" fill="#323330"/>
</g>
</g>
</svg>
