<svg width="101" height="99" viewBox="0 0 101 99" fill="none" xmlns="http://www.w3.org/2000/svg">
<g id="icon_MySQL">
<g class="color-group">
<path id="Vector" d="M92.6481 75.9429C87.2073 75.8073 82.9904 76.3514 79.4537 77.8475C78.4334 78.2552 76.8009 78.2556 76.6649 79.548C77.2091 80.0921 77.2771 80.9764 77.7532 81.7243C78.5703 83.0843 79.9975 84.9208 81.2899 85.8735C82.7179 86.9614 84.1468 88.0494 85.6424 89.0016C88.2952 90.6341 91.2881 91.586 93.8725 93.2185C95.3693 94.17 96.8646 95.3952 98.3611 96.4151C99.1093 96.9585 99.585 97.8435 100.538 98.1832V97.9796C100.061 97.367 99.9251 96.4831 99.4494 95.8029C98.77 95.1227 98.089 94.5105 97.4088 93.8303C95.4366 91.1783 92.9882 88.8656 90.3358 86.9614C88.1596 85.465 83.3981 83.4248 82.5143 80.908C82.5143 80.908 82.4459 80.8404 82.3782 80.7723C83.8743 80.6363 85.6424 80.0921 87.0712 79.684C89.3835 79.0714 91.4918 79.2079 93.8725 78.5957C94.9604 78.3236 96.0488 77.9835 97.1367 77.6434V77.0316C95.9131 75.8073 95.0289 74.1752 93.7365 73.0188C90.2678 70.0255 86.4587 67.1014 82.5143 64.6531C80.4056 63.2927 77.6848 62.4084 75.4405 61.2525C74.6251 60.8439 73.2643 60.6403 72.7885 59.9601C71.5638 58.464 70.8836 56.4918 69.9997 54.7233C68.0279 50.9822 66.1229 46.8337 64.4224 42.8893C63.1988 40.2365 62.4506 37.5837 60.9541 35.1358C53.9488 23.5735 46.3313 16.5681 34.6334 9.69848C32.1166 8.27044 29.1241 7.65826 25.9276 6.91042C24.2278 6.84201 22.5269 6.70636 20.8268 6.63795C19.7385 6.16181 18.6502 4.86981 17.6979 4.25763C13.8219 1.80889 3.82327 -3.49552 0.966809 3.50979C-0.869742 7.93034 3.68762 12.2829 5.25131 14.5279C6.40844 16.092 7.90411 17.8601 8.72035 19.6287C9.19649 20.7842 9.33214 22.0094 9.80829 23.2334C10.897 26.2251 11.9165 29.5585 13.3453 32.3473C14.0936 33.7753 14.9094 35.2714 15.8617 36.5638C16.4059 37.3116 17.3578 37.6521 17.5622 38.8761C16.6103 40.2365 16.5419 42.2771 15.9974 43.9772C13.549 51.6628 14.5017 61.1844 17.97 66.8293C19.0579 68.5291 21.6427 72.271 25.1113 70.8422C28.1722 69.6182 27.492 65.7414 28.3755 62.3408C28.5804 61.5238 28.4443 60.9804 28.852 60.4362V60.5726C29.8043 62.4764 30.7562 64.3134 31.6405 66.2176C33.7491 69.5498 37.4214 73.0188 40.482 75.3315C42.1148 76.5551 43.4068 78.6637 45.4475 79.4119V79.2075H45.311C44.9029 78.5953 44.2907 78.3236 43.7469 77.8471C42.523 76.6235 41.1622 75.1271 40.2103 73.7666C37.3542 69.9575 34.8371 65.741 32.5928 61.3881C31.5048 59.2803 30.5522 56.9676 29.6683 54.8593C29.2598 54.0423 29.2598 52.8187 28.58 52.411C27.5597 53.907 26.0636 55.1994 25.3154 57.0356C24.0238 59.9601 23.8873 63.5648 23.4112 67.3051C23.1391 67.3739 23.2748 67.3051 23.1387 67.4419C20.9629 66.897 20.2146 64.6531 19.398 62.7485C17.3574 57.9198 17.0173 50.1663 18.7862 44.5894C19.2623 43.161 21.303 38.6724 20.4867 37.312C20.0786 36.0196 18.7178 35.2714 17.97 34.2515C17.0861 32.9591 16.1334 31.3274 15.5216 29.8986C13.8891 26.0898 13.0729 21.873 11.3047 18.0642C10.4885 16.2957 9.06084 14.4599 7.90411 12.8274C6.61211 10.9913 5.18368 9.69848 4.16338 7.52222C3.82367 6.77438 3.34713 5.55002 3.89129 4.73377C4.02734 4.18961 4.29903 3.98594 4.84358 3.8499C5.72785 3.10128 8.2446 4.05357 9.12808 4.46169C11.6448 5.48121 13.7531 6.43428 15.8617 7.86232C16.8136 8.54252 17.8339 9.83491 19.0579 10.175H20.4863C22.663 10.6508 25.1109 10.3111 27.1515 10.9228C30.7566 12.0788 34.0208 13.7793 36.9457 15.6159C45.8556 21.2608 53.2002 29.2864 58.1657 38.8761C58.9819 40.4398 59.3217 41.869 60.0699 43.5007C61.4987 46.8337 63.2668 50.2343 64.6945 53.4989C66.1229 56.6951 67.4829 59.9601 69.5235 62.6129C70.5439 64.0405 74.6243 64.7891 76.4608 65.5373C77.8213 66.1491 79.9299 66.6937 81.1539 67.4415C83.4662 68.8692 85.7785 70.5024 87.9551 72.0661C89.0434 72.8824 92.4437 74.5829 92.6481 75.9429Z" fill="#00546B"/>
<path id="Vector_2" d="M23.2744 16.8394C22.1184 16.8394 21.3026 16.9762 20.4863 17.1798V17.3159H20.6224C21.1669 18.4042 22.1184 19.1524 22.7982 20.1043C23.3428 21.1923 23.8185 22.281 24.3631 23.3693C24.4307 23.3009 24.4987 23.2333 24.4987 23.2333C25.4514 22.5527 25.9272 21.4647 25.9272 19.8323C25.5191 19.3565 25.451 18.8804 25.1109 18.4042C24.7032 17.7236 23.8185 17.3839 23.2744 16.8394Z" fill="#00546B"/>
</g>
</g>
</svg>
