<svg width="101" height="99" viewBox="0 0 101 99" fill="none" xmlns="http://www.w3.org/2000/svg">
<g id="icon_Pr">
<g id="color-group">
<path id="Vector" d="M18.2461 0.842529H82.8294C92.6211 0.842529 100.538 8.7592 100.538 18.5509V80.6342C100.538 90.4259 92.6211 98.3425 82.8294 98.3425H18.2461C8.45439 98.3425 0.53772 90.4259 0.53772 80.6342V18.5509C0.53772 8.7592 8.45439 0.842529 18.2461 0.842529Z" fill="#00005B"/>
</g>
<g id="color-group2">
<path id="Vector_2" d="M24.2877 69.2176V26.3426C24.2877 26.0509 24.4127 25.8843 24.7044 25.8843C25.4127 25.8843 26.0794 25.8843 27.0377 25.8426C28.0377 25.8009 29.0794 25.8009 30.2044 25.7593C31.3294 25.7176 32.5377 25.7176 33.8294 25.6759C35.1211 25.6343 36.3711 25.6343 37.6211 25.6343C41.0377 25.6343 43.8711 26.0509 46.2044 26.9259C48.2877 27.6343 50.2044 28.8009 51.7877 30.3426C53.1211 31.6759 54.1627 33.3009 54.8294 35.0926C55.4544 36.8426 55.7877 38.6343 55.7877 40.5093C55.7877 44.0926 54.9544 47.0509 53.2877 49.3843C51.6211 51.7176 49.2877 53.4676 46.5794 54.4676C43.7461 55.5093 40.6211 55.8843 37.2044 55.8843C36.2044 55.8843 35.5377 55.8843 35.1211 55.8426C34.7044 55.8009 34.1211 55.8009 33.3294 55.8009V69.1759C33.3711 69.4676 33.1627 69.7176 32.8711 69.7593H24.7877C24.4544 69.7593 24.2877 69.5926 24.2877 69.2176ZM33.3711 33.9259V47.9259C33.9544 47.9676 34.4961 48.0093 34.9961 48.0093H37.2044C38.8294 48.0093 40.4544 47.7593 41.9961 47.2593C43.3294 46.8843 44.4961 46.0926 45.4127 45.0509C46.2877 44.0093 46.7044 42.5926 46.7044 40.7593C46.7461 39.4676 46.4127 38.1759 45.7461 37.0509C45.0377 35.9676 44.0377 35.1343 42.8294 34.6759C41.2877 34.0509 39.6211 33.8009 37.9127 33.8426C36.8294 33.8426 35.8711 33.8426 35.0794 33.8843C34.2461 33.8426 33.6627 33.8843 33.3711 33.9259Z" fill="#9999FF"/>
<path id="Vector_3" d="M61.6211 36.3425H68.9127C69.3294 36.3425 69.6627 36.6342 69.7877 37.0092C69.9127 37.3426 69.9961 37.6759 70.0377 38.0509C70.1211 38.4675 70.2044 38.9259 70.2461 39.3425C70.2877 39.8009 70.3294 40.3009 70.3294 40.8425C71.5794 39.3842 73.0794 38.1759 74.7877 37.2592C76.7044 36.1759 78.9127 35.6342 81.1211 35.6342C81.4127 35.5925 81.6627 35.8009 81.7044 36.0925V44.3842C81.7044 44.7175 81.4961 44.8425 81.0377 44.8425C79.5377 44.8009 77.9961 44.9259 76.5377 45.2592C75.3294 45.5092 74.1627 45.8842 73.0377 46.3842C72.2461 46.7592 71.4961 47.2592 70.9127 47.9259V69.1759C70.9127 69.5925 70.7461 69.7592 70.3711 69.7592H62.1627C61.8294 69.8009 61.5377 69.5925 61.4961 69.2592V46.0092C61.4961 45.0092 61.4961 43.9675 61.4544 42.8842C61.4127 41.8009 61.4127 40.7175 61.3711 39.6342C61.3711 38.6759 61.2877 37.7592 61.2044 36.8009C61.1627 36.5925 61.2877 36.3842 61.4961 36.3425C61.4961 36.3009 61.5794 36.3009 61.6211 36.3425Z" fill="#9999FF"/>
</g>
</g>
</svg>
