<svg width="100" height="110" viewBox="0 0 100 110" fill="none" xmlns="http://www.w3.org/2000/svg">
<g id="icon_nodeJS">
<g id="color-group">
<path id="Vector" d="M45.2686 1.24066C47.9876 -0.315637 51.529 -0.322666 54.2456 1.24066C67.9125 8.96319 81.5837 16.6736 95.2483 24.4008C97.8185 25.8486 99.5376 28.7089 99.5115 31.6703V78.132C99.5306 81.2161 97.6416 84.1448 94.93 85.5597C81.308 93.2397 67.693 100.929 54.0733 108.609C51.2982 110.196 47.6857 110.073 44.9972 108.357C40.9133 105.989 36.8224 103.633 32.7382 101.268C31.9036 100.771 30.9628 100.375 30.3735 99.5656C30.8944 98.8634 31.8259 98.776 32.5827 98.4694C34.2874 97.9273 35.8531 97.0572 37.4192 96.2129C37.8152 95.9418 38.2987 96.0457 38.6783 96.2882C42.1705 98.2905 45.6318 100.351 49.1358 102.334C49.8832 102.766 50.6401 102.193 51.279 101.837C64.6464 94.2816 78.0302 86.7552 91.3953 79.1978C91.8905 78.9596 92.1642 78.4339 92.124 77.8915C92.1334 62.5648 92.1264 47.2353 92.1287 31.9086C92.1853 31.2931 91.8292 30.7272 91.2726 30.4753C77.6979 22.8305 64.1301 15.1739 50.5577 7.52718C50.3226 7.36552 50.044 7.27878 49.7586 7.27836C49.4733 7.27794 49.1945 7.36386 48.9588 7.52484C35.3864 15.1739 21.821 22.8375 8.24861 30.4819C7.69404 30.7342 7.32186 31.2907 7.38786 31.9086C7.3902 47.2353 7.38786 62.5647 7.38786 77.8938C7.36432 78.1585 7.42245 78.424 7.55442 78.6547C7.68639 78.8853 7.88587 79.07 8.12598 79.1838C11.7478 81.2376 15.3744 83.277 18.9986 85.3238C21.0403 86.4228 23.5472 87.0758 25.7967 86.2338C27.7818 85.5218 29.1733 83.4961 29.1354 81.3884C29.1542 66.1511 29.1261 50.9114 29.1495 35.6765C29.0999 35.0001 29.7416 34.4412 30.3992 34.5049C32.1395 34.4932 33.8821 34.4814 35.6223 34.5096C36.3487 34.4932 36.8486 35.2215 36.7588 35.903C36.7517 51.2368 36.7775 66.5709 36.7471 81.9047C36.7517 85.9913 35.0728 90.438 31.2928 92.4375C26.636 94.8499 20.8802 94.3383 16.2797 92.0251C12.2969 90.0373 8.49621 87.6913 4.58417 85.5617C1.86563 84.1546 -0.0140396 81.2142 0.00509688 78.1324V31.6703C-0.0234125 28.6476 1.76409 25.7353 4.41429 24.3087C18.034 16.6225 31.6513 8.93039 45.2686 1.24066Z" fill="#8CC84B"/>
<path id="Vector_2" d="M57.1504 33.4251C63.0905 33.0428 69.4497 33.1986 74.795 36.1249C78.9335 38.3674 81.228 43.0738 81.301 47.6716C81.1854 48.2918 80.5371 48.6339 79.945 48.5913C78.2216 48.589 76.4977 48.6148 74.7743 48.5796C74.0432 48.6077 73.6183 47.9337 73.5265 47.2873C73.0313 45.0874 71.8316 42.9086 69.7609 41.8475C66.5823 40.2561 62.8968 40.3361 59.4308 40.3693C56.9005 40.5037 54.1796 40.7227 52.0359 42.2107C50.3902 43.3378 49.8903 45.6131 50.4777 47.4455C51.0314 48.7612 52.5502 49.1857 53.7929 49.5771C60.9515 51.4493 68.5374 51.263 75.5593 53.7269C78.4665 54.7314 81.3104 56.6841 82.3055 59.728C83.6071 63.8075 83.0366 68.6838 80.1341 71.9589C77.7803 74.654 74.3521 76.1209 70.9329 76.9176C66.3843 77.9318 61.6639 77.9576 57.0446 77.5073C52.701 77.0121 48.1809 75.8709 44.8277 72.9114C41.9604 70.4217 40.5599 66.5425 40.6989 62.7984C40.7321 62.1661 41.3617 61.7252 41.9674 61.7771C43.703 61.7631 45.4385 61.7584 47.1741 61.7795C47.8673 61.7299 48.3812 62.329 48.4168 62.9823C48.737 65.0784 49.5247 67.2783 51.3525 68.521C54.8798 70.7966 59.3058 70.6408 63.3448 70.7045C66.6909 70.5561 70.4471 70.5112 73.1778 68.2995C74.6185 67.0381 75.0453 64.9276 74.656 63.112C74.2342 61.5791 72.6306 60.8648 71.2536 60.3977C64.1868 58.1623 56.5162 58.9734 49.5177 56.4455C46.6765 55.4414 43.9291 53.543 42.8375 50.6241C41.3144 46.493 42.0123 41.3832 45.219 38.2186C48.3457 35.0709 52.8592 33.8586 57.1504 33.4247V33.4251Z" fill="#8CC84B"/>
</g>
</g>
</svg>
