<svg width="101" height="136" viewBox="0 0 101 136" fill="none" xmlns="http://www.w3.org/2000/svg">
<g id="icon_Java">
<g class="color-group">
<path id="Vector" d="M32.7333 104.985C32.7333 104.985 27.5505 107.977 36.4201 108.992C47.1598 110.221 52.6632 110.061 64.4716 107.816C64.4716 107.816 67.5706 109.793 71.952 111.45C45.3966 122.831 11.8951 110.809 32.7333 104.985Z" fill="#0074BD"/>
<path id="Vector_2" d="M29.474 90.1306C29.474 90.1306 23.65 94.4586 32.5196 95.3669C44.0073 96.5424 53.0373 96.6492 68.7461 93.6037C68.7461 93.6037 70.9367 95.7943 74.3029 97.0233C42.2975 106.374 6.55198 97.7179 29.474 90.1306Z" fill="#0074BD"/>
<path id="Vector_3" d="M91.9353 115.938C91.9353 115.938 95.7823 119.09 87.7142 121.548C72.3794 126.197 23.9172 127.586 10.5059 121.708C5.6971 119.625 14.727 116.686 17.6123 116.045C20.6044 115.404 22.2608 115.51 22.2608 115.51C16.8643 111.717 -12.523 122.937 7.35348 126.197C61.426 135.013 105.988 122.296 91.9353 115.938Z" fill="#0074BD"/>
<path id="Vector_4" d="M35.2446 74.7426C35.2446 74.7426 10.6128 80.62 26.5353 82.7038C33.2677 83.6122 46.6255 83.3984 59.1284 82.3298C69.3338 81.4749 79.5926 79.6582 79.5926 79.6582C79.5926 79.6582 76.0127 81.2078 73.3946 82.971C48.3887 89.543 0.0333691 86.4975 13.9255 79.7651C25.6804 74.1014 35.2446 74.7426 35.2446 74.7426Z" fill="#0074BD"/>
<path id="Vector_5" d="M79.4324 99.4278C104.866 86.2303 93.1108 73.5136 84.8824 75.2234C82.852 75.6509 81.9971 76.0249 81.9971 76.0249C81.9971 76.0249 82.7451 74.8494 84.1878 74.3685C100.431 68.6514 112.934 91.1994 78.9515 100.122C78.9515 100.122 79.3255 99.7484 79.4324 99.4278Z" fill="#0074BD"/>
<path id="Vector_8" d="M37.7025 135.28C62.1206 136.83 99.6294 134.425 100.538 122.831C100.538 122.831 98.8279 127.212 80.3407 130.685C59.5025 134.585 33.802 134.158 18.5206 131.647C18.5741 131.647 21.6731 134.265 37.7025 135.28Z" fill="#0074BD"/>
<g class="color-group3">
<path id="Vector_6" d="M56.8309 64.9111C63.3495 72.4449 55.1211 79.2307 55.1211 79.2307C55.1211 79.2307 71.7382 70.6817 64.0975 59.942C56.9912 49.9503 51.4877 44.9812 81.0887 27.8298C81.0887 27.7763 34.6569 39.3709 56.8309 64.9111Z" fill="#EA2D2E"/>
<path id="Vector_7" d="M64.0976 0.098877C64.0976 0.098877 78.2035 14.2047 50.7397 35.8444C28.726 53.2096 45.7172 63.1478 50.7397 74.4753C37.8628 62.8807 28.4589 52.6753 34.7638 43.1645C44.0608 29.2724 69.7613 22.4866 64.0976 0.098877Z" fill="#EA2D2E"/>
</g>
</g>
</g>
</svg>
