<svg width="101" height="101" viewBox="0 0 101 101" fill="none" xmlns="http://www.w3.org/2000/svg">
<g id="icon_VisualBasic">
<g class="color-group">
<circle id="Vector" cx="50.641" cy="50.2109" r="50" fill="#68217A"/>
</g>
<g class="color-group2">
<path d="M28.6683 67.7109L15.8754 31.9199H23.7123L32.7699 58.4092L41.5345 31.9199H49.2006L36.3832 67.7109H28.6683Z" fill="white"/>
<path d="M52.9115 31.9199H67.2181C70.0502 31.9199 72.1579 32.042 73.5414 32.2861C74.9411 32.514 76.1862 33.0023 77.2767 33.751C78.3835 34.4997 79.3031 35.5007 80.0355 36.7539C80.7679 37.9909 81.1342 39.3825 81.1342 40.9287C81.1342 42.6051 80.6784 44.1432 79.767 45.543C78.8718 46.9427 77.6511 47.9925 76.1049 48.6924C78.2858 49.3271 79.9623 50.4095 81.1342 51.9395C82.306 53.4694 82.892 55.2679 82.892 57.335C82.892 58.9626 82.5095 60.5495 81.7445 62.0957C80.9958 63.6257 79.9623 64.8545 78.6439 65.7822C77.3418 66.6937 75.7305 67.2552 73.8099 67.4668C72.6055 67.597 69.7002 67.6784 65.0941 67.7109H52.9115V31.9199ZM60.1381 37.877V46.1533H64.8744C67.6901 46.1533 69.4398 46.1126 70.1234 46.0312C71.3604 45.8848 72.3288 45.4616 73.0287 44.7617C73.7448 44.0456 74.1029 43.1097 74.1029 41.9541C74.1029 40.8473 73.7937 39.9521 73.1752 39.2686C72.573 38.5687 71.6696 38.1455 70.4652 37.999C69.7491 37.9176 67.6901 37.877 64.2885 37.877H60.1381ZM60.1381 52.1104V61.6807H66.8275C69.4317 61.6807 71.0837 61.6074 71.7836 61.4609C72.8578 61.2656 73.7286 60.7936 74.3959 60.0449C75.0795 59.2799 75.4213 58.2627 75.4213 56.9932C75.4213 55.9189 75.1608 55.0075 74.64 54.2588C74.1192 53.5101 73.3623 52.9648 72.3695 52.623C71.3929 52.2812 69.2608 52.1104 65.973 52.1104H60.1381Z" fill="white"/>
<path d="M51.2313 85.7109V83.9272H53.015V85.7109H51.2313Z" fill="white"/>
<path d="M54.8812 85.7109V76.4053H56.7094L60.5179 82.6196V76.4053H62.2635V85.7109H60.3783L56.6268 79.6426V85.7109H54.8812Z" fill="white"/>
<path d="M64.2567 85.7109V76.4053H71.1566V77.9795H66.1356V80.0425H70.8075V81.6104H66.1356V84.1431H71.3344V85.7109H64.2567Z" fill="white"/>
<path d="M75.0223 85.7109V77.9795H72.2611V76.4053H79.6561V77.9795H76.9012V85.7109H75.0223Z" fill="white"/>
</g>
</g>
</svg>
