<svg width="103" height="102" viewBox="0 0 103 102" fill="none" xmlns="http://www.w3.org/2000/svg">
<g id="icon_Arduino">
<g class="color-group">
<path id="Vector" d="M101.538 50.9188C101.538 78.5338 79.1506 100.919 51.5415 100.919C23.9233 100.919 1.53772 78.5338 1.53772 50.9188C1.53772 23.3102 23.9233 0.923096 51.5415 0.923096C79.1519 0.923169 101.538 23.3102 101.538 50.9188Z" fill="#00979D" stroke="#81C9CB" stroke-width="1.69732" stroke-miterlimit="10"/>
<path id="Vector_2" opacity="0.5" d="M101.538 50.9604C101.538 78.5749 79.1506 100.961 51.5415 100.961C23.9233 100.961 1.53772 78.5738 1.53772 50.9604C1.53772 23.3514 23.9233 0.964355 51.5415 0.964355C79.1519 0.965522 101.538 23.3513 101.538 50.9604Z" fill="url(#paint0_linear_216_32)" stroke="url(#paint1_linear_216_32)" stroke-width="1.82116" stroke-miterlimit="10"/>
</g>
<g class="color-group2">
<path id="Vector_3" d="M70.6347 68.7986C69.6933 68.7986 68.7293 68.7309 67.7812 68.5898C59.8336 67.4554 54.5193 61.7475 51.5425 57.3596C48.5564 61.7474 43.2425 67.4611 35.2984 68.5939C34.3531 68.7292 33.3994 68.7971 32.4445 68.797C27.5033 68.797 22.8647 66.9579 19.3756 63.6188C15.8532 60.252 13.9095 55.7342 13.9095 50.9167C13.9095 46.0932 15.8531 41.5816 19.3807 38.2087C22.8664 34.869 27.5085 33.0354 32.4518 33.0354C33.3939 33.0354 34.3528 33.1031 35.2977 33.2384C43.2419 34.3713 48.5557 40.08 51.542 44.4687C54.5193 40.08 59.8332 34.373 67.7802 33.2384C68.7283 33.1025 69.6871 33.0354 70.6292 33.0354C75.5704 33.0354 80.2122 34.8738 83.6979 38.2087C87.2236 41.5816 89.1629 46.0932 89.1629 50.9167C89.1629 55.7342 87.2286 60.252 83.7029 63.6188C80.211 66.9578 75.5761 68.7986 70.6347 68.7986ZM55.0616 50.9186C56.6137 53.8746 61.1925 61.2508 68.6768 62.3228C69.332 62.4129 69.9916 62.463 70.6341 62.463C77.3571 62.463 82.8296 57.2849 82.8296 50.9168C82.8296 44.5487 77.3583 39.3707 70.6293 39.3707C69.9867 39.3707 69.3273 39.4165 68.6782 39.5107C61.1926 40.5802 56.6138 47.9563 55.0616 50.9186ZM32.4517 39.3723C25.7198 39.3723 20.2463 44.5501 20.2463 50.9185C20.2463 57.2855 25.7175 62.4647 32.4433 62.4647C33.0889 62.4647 33.7485 62.4145 34.4036 62.3245C41.8882 61.2527 46.4655 53.8806 48.0186 50.9203C46.4698 47.9641 41.8881 40.5819 34.4036 39.516C33.7562 39.4182 33.0949 39.3723 32.4517 39.3723Z" fill="white"/>
<path id="Vector_4" d="M27.345 49.1703H38.4757V52.757H27.345V49.1703ZM75.6321 49.1703H71.8638V45.3965H68.2649V49.1703H64.4983V52.757H68.2649V56.5302H71.8638V52.757H75.6321V49.1703Z" fill="white"/>
</g>
</g>
<defs>
<linearGradient id="paint0_linear_216_32" x1="1.53772" y1="50.9626" x2="101.538" y2="50.9626" gradientUnits="userSpaceOnUse">
<stop offset="0.117" stop-color="white" stop-opacity="0"/>
<stop offset="0.252" stop-color="#C0D1D3" stop-opacity="0.153"/>
<stop offset="0.387" stop-color="#91B3B7" stop-opacity="0.306"/>
<stop offset="0.52" stop-color="#6D9FA3" stop-opacity="0.457"/>
<stop offset="0.65" stop-color="#4D9195" stop-opacity="0.604"/>
<stop offset="0.776" stop-color="#30888B" stop-opacity="0.746"/>
<stop offset="0.895" stop-color="#148386" stop-opacity="0.881"/>
<stop offset="1" stop-color="#008184"/>
</linearGradient>
<linearGradient id="paint1_linear_216_32" x1="1.50126" y1="50.9626" x2="101.574" y2="50.9626" gradientUnits="userSpaceOnUse">
<stop stop-color="white" stop-opacity="0"/>
<stop offset="0.153" stop-color="#C0D1D3" stop-opacity="0.153"/>
<stop offset="0.306" stop-color="#91B3B7" stop-opacity="0.306"/>
<stop offset="0.457" stop-color="#6D9FA3" stop-opacity="0.457"/>
<stop offset="0.604" stop-color="#4D9195" stop-opacity="0.604"/>
<stop offset="0.746" stop-color="#30888B" stop-opacity="0.746"/>
<stop offset="0.881" stop-color="#148386" stop-opacity="0.881"/>
<stop offset="1" stop-color="#008184"/>
</linearGradient>
</defs>
</svg>
