<svg width="101" height="113" viewBox="0 0 101 113" fill="none" xmlns="http://www.w3.org/2000/svg">
<g id="icon_SQLite">
<g class="color-group">
<path id="Vector" d="M79.2668 5.95068H9.08949C4.38583 5.95068 0.537842 9.79917 0.537842 14.5023V91.895C0.537842 96.5981 4.38583 100.447 9.08949 100.447H55.3097C54.7852 77.4484 62.6387 32.8163 79.2668 5.95068Z" fill="#0F80CC"/>
<path id="Vector_2" d="M76.7173 8.44556H9.0895C5.74962 8.44556 3.03204 11.1626 3.03204 14.503V86.2486C18.3482 80.3706 41.3359 75.2985 57.2305 75.5288C60.4248 58.8275 69.8121 26.0968 76.7173 8.44556Z" fill="url(#paint0_linear_220_53)"/>
<g class="color-group3">
<path id="Vector_3" d="M95.6356 3.41768C90.8292 -0.868113 85.0096 0.853186 79.2668 5.95076C78.4141 6.7077 77.5634 7.5479 76.7173 8.44545C66.8921 18.8685 57.772 38.1743 54.9387 52.919C56.0427 55.1574 56.9049 58.0136 57.4723 60.1956C57.6179 60.7551 57.7491 61.2806 57.8543 61.7274C58.1036 62.7855 58.2377 63.4712 58.2377 63.4712C58.2377 63.4712 58.1495 63.1381 57.788 62.0899C57.7192 61.889 57.6424 61.6696 57.5516 61.4113C57.5043 61.285 57.4538 61.16 57.4 61.0363C56.7593 59.5464 54.9866 56.402 54.2062 55.0327C53.5877 56.8469 53.004 58.6727 52.4555 60.5092C54.7079 64.6305 56.0806 71.6932 56.0806 71.6932C56.0806 71.6932 55.9614 71.2355 55.3955 69.6378C54.8929 68.2252 52.3902 63.8397 51.7973 62.8145C50.7831 66.5587 50.3802 69.0863 50.7437 69.7016C51.4493 70.8939 52.1209 72.9518 52.7113 75.2271C54.0442 80.3531 54.9702 86.594 54.9702 86.594C54.9702 86.594 55.0001 87.0079 55.0509 87.6441C54.8654 91.9489 54.9766 96.4122 55.3102 100.446C55.7515 105.787 56.5828 110.374 57.6424 112.829L58.3619 112.437C56.8061 107.6 56.1739 101.261 56.4506 93.9499C56.8695 82.7754 59.4409 69.2987 64.1925 55.2526C72.2205 34.049 83.3581 17.0365 93.5518 8.91168C84.2607 17.3028 71.686 44.4631 67.9218 54.5206C63.7068 65.7838 60.72 76.353 58.9199 86.4793C62.0259 76.9858 72.068 72.9054 72.068 72.9054C72.068 72.9054 76.993 66.831 82.7488 58.1527C79.3012 58.939 73.6397 60.2854 71.7433 61.0822C68.946 62.2555 68.1925 62.6559 68.1925 62.6559C68.1925 62.6559 77.2528 57.138 85.0266 54.6398C95.7174 37.8018 107.365 13.8811 95.6356 3.41768Z" fill="#003B57"/>
</g>
</g>
</g>
<defs>
<linearGradient id="paint0_linear_220_53" x1="45.5204" y1="10.0374" x2="45.5204" y2="81.9219" gradientUnits="userSpaceOnUse">
<stop stop-color="#97D9F6"/>
<stop offset="0.92024" stop-color="#0F80CC"/>
<stop offset="1" stop-color="#0F80CC"/>
</linearGradient>
</defs>
</svg>
