<svg width="101" height="99" viewBox="0 0 101 99" fill="none" xmlns="http://www.w3.org/2000/svg">
<g id="icon_Ai">
<g class="color-group">
<path id="Vector" d="M17.7786 0.842529H82.362C92.1536 0.842529 100.07 8.7592 100.07 18.5509V80.6342C100.07 90.4259 92.1536 98.3425 82.362 98.3425H17.7786C7.98698 98.3425 0.0703125 90.4259 0.0703125 80.6342V18.5509C0.0703125 8.7592 7.98698 0.842529 17.7786 0.842529Z" fill="#330000"/>
</g>
<g class="color-group2">
<path id="Vector_2" d="M50.1961 62.8214H34.6961L31.5295 72.6131C31.4461 72.9881 31.1128 73.2381 30.7378 73.1965H22.9045C22.4461 73.1965 22.3211 72.9465 22.4461 72.4465L35.8628 33.8215C35.9878 33.4048 36.1128 32.9465 36.2795 32.4465C36.4461 31.5715 36.5295 30.6548 36.5295 29.7381C36.4878 29.5298 36.6545 29.3215 36.8628 29.2798H47.6545C47.9878 29.2798 48.1545 29.4048 48.1961 29.6131L63.4045 72.5298C63.5295 72.9881 63.4045 73.1965 62.9878 73.1965H54.2795C53.9878 73.2381 53.6961 73.0298 53.6128 72.7381L50.1961 62.8214ZM37.1128 54.3631H47.6961C47.4461 53.4881 47.1128 52.4465 46.7378 51.3631C46.3628 50.2381 45.9878 49.0298 45.6128 47.7798C45.1961 46.4881 44.8211 45.2381 44.4045 43.9465C43.9878 42.6548 43.6128 41.4464 43.2795 40.2381C42.9461 39.0715 42.6545 37.9881 42.3628 36.9881H42.2795C41.9045 38.7798 41.4461 40.5715 40.8628 42.3631C40.2378 44.3631 39.6128 46.4465 38.9461 48.5298C38.3628 50.6548 37.7378 52.6131 37.1128 54.3631Z" fill="#FF9A00"/>
<path id="Vector_3" d="M72.4878 36.4049C71.1128 36.4465 69.7795 35.9049 68.7795 34.9465C67.8212 33.9049 67.3212 32.5299 67.3628 31.1132C67.3212 29.6965 67.8628 28.3632 68.8628 27.4049C69.8628 26.4465 71.1962 25.9465 72.5712 25.9465C74.1962 25.9465 75.4462 26.4465 76.3628 27.4049C77.2795 28.4049 77.7795 29.7382 77.7378 31.1132C77.7795 32.5299 77.2795 33.9049 76.2795 34.9465C75.3212 35.9465 73.9045 36.4882 72.4878 36.4049ZM67.8212 72.5715V40.4882C67.8212 40.0715 67.9878 39.9049 68.3628 39.9049H76.6128C76.9878 39.9049 77.1545 40.1132 77.1545 40.4882V72.5715C77.1545 73.0299 76.9878 73.2382 76.6128 73.2382H68.4462C68.0295 73.2382 67.8212 72.9882 67.8212 72.5715Z" fill="#FF9A00"/>
</g>
</g>
</svg>
