<svg width="30" height="41" viewBox="0 0 30 41" fill="none" xmlns="http://www.w3.org/2000/svg">
<path d="M17.5 11.623V0.998047H1.875C0.835938 0.998047 0 1.83398 0 2.87305V39.123C0 40.1621 0.835938 40.998 1.875 40.998H28.125C29.1641 40.998 30 40.1621 30 39.123V13.498H19.375C18.3438 13.498 17.5 12.6543 17.5 11.623ZM22.5 30.0605C22.5 30.5762 22.0781 30.998 21.5625 30.998H8.4375C7.92188 30.998 7.5 30.5762 7.5 30.0605V29.4355C7.5 28.9199 7.92188 28.498 8.4375 28.498H21.5625C22.0781 28.498 22.5 28.9199 22.5 29.4355V30.0605ZM22.5 25.0605C22.5 25.5762 22.0781 25.998 21.5625 25.998H8.4375C7.92188 25.998 7.5 25.5762 7.5 25.0605V24.4355C7.5 23.9199 7.92188 23.498 8.4375 23.498H21.5625C22.0781 23.498 22.5 23.9199 22.5 24.4355V25.0605ZM22.5 19.4355V20.0605C22.5 20.5762 22.0781 20.998 21.5625 20.998H8.4375C7.92188 20.998 7.5 20.5762 7.5 20.0605V19.4355C7.5 18.9199 7.92188 18.498 8.4375 18.498H21.5625C22.0781 18.498 22.5 18.9199 22.5 19.4355ZM30 10.5215V10.998H20V0.998047H20.4766C20.9766 0.998047 21.4531 1.19336 21.8047 1.54492L29.4531 9.20117C29.8047 9.55273 30 10.0293 30 10.5215Z" fill="#C14747"/>
</svg>
