<svg width="101" height="100" viewBox="0 0 101 100" fill="none" xmlns="http://www.w3.org/2000/svg">
<g id="icon_JQuery">
<g class="color-group">
<path id="Vector" fill-rule="evenodd" clip-rule="evenodd" d="M98.2162 74.2178L97.7686 75.378C90.1416 90.2312 76.6256 99.3436 57.3476 99.7455C48.3355 99.9315 39.7487 97.6189 34.1392 95.1047C22.034 89.6656 11.8516 79.579 6.29113 68.8021C-1.68551 53.3532 -3.12407 31.8628 13.4616 15.8115C13.7177 15.8115 11.4497 19.2921 11.7058 19.2921L11.2492 20.7774C-0.702352 58.1955 36.12 90.2624 71.9147 86.5947C80.5171 85.7129 91.4866 81.002 98.2162 74.2178Z" fill="#21609B"/>
<path id="Vector_2" fill-rule="evenodd" clip-rule="evenodd" d="M76.5555 58.7456C85.5609 58.8068 94.9672 54.5981 100.538 48.6891C95.6642 61.0593 81.5537 69.0104 62.632 66.4817C46.7878 64.3618 31.6952 48.4185 30.1409 32.4429C29.0041 20.8164 33.0558 13.8775 39.7331 5.45996C37.4127 9.86248 36.5454 13.2573 36.3293 15.423C33.7929 40.5732 56.4201 58.6131 76.5555 58.7456Z" fill="#21609B"/>
<path id="Vector_3" fill-rule="evenodd" clip-rule="evenodd" d="M99.6325 27.5071C98.2329 30.7183 90.1728 36.782 86.6131 37.5403C72.5182 40.5432 63.4916 33.8593 58.7628 26.2534C58.0602 25.1177 56.7609 22.0157 56.5282 21.2263C54.6943 14.991 55.5372 5.56025 61.0075 0.678955C59.3596 5.32086 59.1191 10.7121 59.9865 14.2172C60.512 16.3361 62.1131 20.036 63.7154 22.3631C66.6303 26.6019 68.4798 27.6318 72.2242 29.8832C73.9111 30.8964 75.7204 31.7092 76.5021 31.9319C80.0528 32.9774 87.5495 35.731 99.6336 27.5071" fill="#21609B"/>
</g>
</g>
</svg>
