<svg width="78" height="117" viewBox="0 0 78 117" fill="none" xmlns="http://www.w3.org/2000/svg">
<g id="icon_Figma">
<g id="color-group">
<path id="Vector" d="M19.8711 116.21C30.5431 116.21 39.2045 107.549 39.2045 96.8771V77.5437H19.8711C9.19908 77.5437 0.53772 86.2051 0.53772 96.8771C0.53772 107.549 9.19908 116.21 19.8711 116.21Z" fill="#0ACF83"/>
<path id="Vector_2" d="M0.53772 58.2108C0.53772 47.5388 9.19908 38.8774 19.8711 38.8774H39.2045V77.5442H19.8711C9.19908 77.5442 0.53772 68.8829 0.53772 58.2108Z" fill="#A259FF"/>
<path id="Vector_3" d="M0.53772 19.5438C0.53772 8.8718 9.19908 0.210449 19.8711 0.210449H39.2045V38.8772H19.8711C9.19908 38.8772 0.53772 30.2159 0.53772 19.5438Z" fill="#F24E1E"/>
<path id="Vector_4" d="M39.2043 0.210449H58.5377C69.2098 0.210449 77.8711 8.8718 77.8711 19.5438C77.8711 30.2159 69.2098 38.8772 58.5377 38.8772H39.2043V0.210449Z" fill="#FF7262"/>
<path id="Vector_5" d="M77.8711 58.2108C77.8711 68.8829 69.2098 77.5442 58.5377 77.5442C47.8657 77.5442 39.2043 68.8829 39.2043 58.2108C39.2043 47.5388 47.8657 38.8774 58.5377 38.8774C69.2098 38.8774 77.8711 47.5388 77.8711 58.2108Z" fill="#1ABCFE"/>
</g>
</g>
</svg>
