<svg width="101" height="99" viewBox="0 0 101 99" fill="none" xmlns="http://www.w3.org/2000/svg">
<g id="icon_Ps">
<g id="color-group">
<path id="Vector" d="M18.6234 0.842529H83.2067C92.9984 0.842529 100.915 8.7592 100.915 18.5509V80.6342C100.915 90.4259 92.9984 98.3425 83.2067 98.3425H18.6234C8.83171 98.3425 0.915039 90.4259 0.915039 80.6342V18.5509C0.915039 8.7592 8.83171 0.842529 18.6234 0.842529Z" fill="#001E36"/>
</g>
<g id="color-group2">
<path id="Vector_2" d="M20.83 70.6759V27.8009C20.83 27.5092 20.955 27.3425 21.2467 27.3425C21.955 27.3425 22.6217 27.3425 23.58 27.3009C24.58 27.2592 25.6217 27.2592 26.7467 27.2175C27.8717 27.1759 29.08 27.1759 30.3717 27.1342C31.6633 27.0925 32.9133 27.0925 34.1633 27.0925C37.58 27.0925 40.4133 27.5092 42.7467 28.3842C44.83 29.0925 46.7467 30.2592 48.33 31.8009C49.6633 33.1342 50.705 34.7592 51.3717 36.5509C51.9967 38.3009 52.33 40.0925 52.33 41.9675C52.33 45.5509 51.4967 48.5092 49.83 50.8425C48.1633 53.1759 45.83 54.9259 43.1217 55.9259C40.2883 56.9675 37.1633 57.3425 33.7467 57.3425C32.7467 57.3425 32.08 57.3425 31.6633 57.3009C31.2467 57.2592 30.6633 57.2592 29.8717 57.2592V70.6342C29.9133 70.9259 29.705 71.1759 29.4133 71.2175H21.33C20.9967 71.2175 20.83 71.0509 20.83 70.6759ZM29.9133 35.3842V49.3842C30.4967 49.4259 31.0383 49.4675 31.5383 49.4675H33.7467C35.3717 49.4675 36.9967 49.2175 38.5383 48.7175C39.8717 48.3425 41.0383 47.5509 41.955 46.5092C42.83 45.4675 43.2467 44.0509 43.2467 42.2175C43.2883 40.9259 42.955 39.6342 42.2883 38.5092C41.58 37.4259 40.58 36.5925 39.3717 36.1342C37.83 35.5092 36.1633 35.2592 34.455 35.3009C33.3717 35.3009 32.4133 35.3009 31.6217 35.3425C30.7883 35.3009 30.205 35.3425 29.9133 35.3842ZM78.33 46.8425C77.08 46.1759 75.7467 45.7175 74.33 45.4259C72.7883 45.0925 71.2467 44.8842 69.6633 44.8842C68.83 44.8425 67.955 44.9675 67.1633 45.1759C66.6217 45.3009 66.1633 45.5925 65.8717 46.0092C65.6633 46.3425 65.5383 46.7592 65.5383 47.1342C65.5383 47.5092 65.705 47.8842 65.955 48.2175C66.33 48.6759 66.83 49.0509 67.3717 49.3425C68.33 49.8425 69.33 50.3009 70.33 50.7175C72.58 51.4675 74.7467 52.5092 76.7467 53.7592C78.1217 54.6342 79.2467 55.8009 80.0383 57.2175C80.705 58.5509 81.0383 60.0092 80.9967 61.5092C81.0383 63.4675 80.455 65.4259 79.3717 67.0509C78.205 68.7175 76.58 70.0092 74.705 70.7592C72.6633 71.6342 70.1633 72.0925 67.1633 72.0925C65.2467 72.0925 63.3717 71.9259 61.4967 71.5509C60.0383 71.3009 58.58 70.8425 57.2467 70.2175C56.955 70.0509 56.7467 69.7592 56.7883 69.4259V62.1759C56.7883 62.0509 56.83 61.8842 56.955 61.8009C57.08 61.7175 57.205 61.7592 57.33 61.8425C58.955 62.8009 60.6633 63.4675 62.4967 63.8842C64.08 64.3009 65.7467 64.5092 67.4133 64.5092C68.9967 64.5092 70.1217 64.3009 70.8717 63.9259C71.5383 63.6342 71.9967 62.9259 71.9967 62.1759C71.9967 61.5925 71.6633 61.0509 70.9967 60.5092C70.33 59.9675 68.955 59.3425 66.9133 58.5509C64.7883 57.8009 62.83 56.8009 60.9967 55.5509C59.705 54.6342 58.6217 53.4259 57.83 52.0092C57.1633 50.6759 56.83 49.2175 56.8717 47.7592C56.8717 45.9675 57.3717 44.2592 58.2883 42.7175C59.33 41.0509 60.8717 39.7175 62.6633 38.8842C64.6217 37.8842 67.08 37.4259 70.0383 37.4259C71.7467 37.4259 73.4967 37.5509 75.205 37.8009C76.455 37.9675 77.6633 38.3009 78.7883 38.7592C78.955 38.8009 79.1217 38.9675 79.205 39.1342C79.2467 39.3009 79.2883 39.4675 79.2883 39.6342V46.4259C79.2883 46.5925 79.205 46.7592 79.08 46.8425C78.705 46.9259 78.4967 46.9259 78.33 46.8425Z" fill="#31A8FF"/>
</g>
</g>
</svg>
