<svg width="119" height="115" viewBox="0 0 119 115" fill="none" xmlns="http://www.w3.org/2000/svg">
<g id="logo">
<path id="face-left" d="M1.17307 80.6374L19.7766 91.5061C19.8101 91.5261 19.8477 91.538 19.8865 91.5406C19.9253 91.5433 19.9641 91.5368 20 91.5215C20.0358 91.5063 20.0676 91.4828 20.0928 91.4529C20.1179 91.423 20.1358 91.3875 20.145 91.3494L28.9231 55.9129C28.9284 55.8854 28.943 55.8606 28.9645 55.8427C28.986 55.8249 29.0129 55.8152 29.0407 55.8152C29.0685 55.8152 29.0954 55.8249 29.1169 55.8427C29.1383 55.8606 29.153 55.8854 29.1583 55.9129L39.0237 102.702C39.0322 102.736 39.0526 102.766 39.0814 102.787L57.8669 113.741C57.883 113.75 57.9012 113.756 57.9199 113.757C57.9386 113.758 57.9574 113.755 57.9747 113.748C57.9919 113.74 58.0073 113.729 58.0194 113.715C58.0315 113.7 58.04 113.683 58.0444 113.665L76.9453 36.7415C76.9529 36.7141 76.9503 36.6849 76.938 36.6593C76.9258 36.6338 76.9047 36.6136 76.8787 36.6026L57.321 27.252C57.3043 27.2442 57.286 27.2403 57.2676 27.2405C57.2492 27.2407 57.231 27.245 57.2145 27.2531C57.1979 27.2613 57.1833 27.273 57.1718 27.2876C57.1603 27.3021 57.1521 27.319 57.1479 27.3371L48.1479 66.9429C48.1407 66.9694 48.1251 66.9927 48.1034 67.0094C48.0818 67.026 48.0553 67.035 48.0281 67.035C48.0009 67.035 47.9744 67.026 47.9528 67.0094C47.9311 66.9927 47.9155 66.9694 47.9083 66.9429L38.0473 19.1867C38.0452 19.1677 38.0378 19.1496 38.026 19.1346C38.0143 19.1196 37.9986 19.1081 37.9808 19.1016L19.1953 10.1227C19.1788 10.1148 19.1609 10.1107 19.1427 10.1106C19.1245 10.1106 19.1066 10.1145 19.0901 10.1222C19.0736 10.1299 19.0589 10.1411 19.0472 10.1551C19.0355 10.1691 19.0269 10.1856 19.0222 10.2033L1.11538 80.4986C1.10881 80.5249 1.11088 80.5527 1.12129 80.5777C1.13169 80.6027 1.14986 80.6237 1.17307 80.6374V80.6374Z" fill="#3A3A84" stroke="white" stroke-width="2" stroke-miterlimit="10"/>
<path id="face-right" d="M97.9985 25.7652L77.0207 36.6161C77.0042 36.6246 76.9897 36.6366 76.9782 36.6513C76.9667 36.666 76.9585 36.683 76.9541 36.7012L58.0843 113.53C58.0781 113.555 58.0793 113.581 58.0878 113.606C58.0964 113.63 58.1118 113.651 58.1322 113.666C58.1527 113.682 58.1772 113.69 58.2026 113.692C58.228 113.693 58.2533 113.687 58.2751 113.674L80.9083 99.764C80.9237 99.7553 80.937 99.7431 80.947 99.7283C80.957 99.7135 80.9635 99.6967 80.966 99.679L89.8417 60.8838C89.8491 60.8562 89.8652 60.8319 89.8877 60.8145C89.9102 60.7971 89.9377 60.7877 89.966 60.7877C89.9943 60.7877 90.0218 60.7971 90.0442 60.8145C90.0667 60.8319 90.0829 60.8562 90.0902 60.8838L99.8757 89.5178C99.8821 89.5363 99.8925 89.5532 99.9062 89.5671C99.92 89.581 99.9366 89.5916 99.955 89.5981C99.9734 89.6045 99.993 89.6067 100.012 89.6044C100.032 89.6022 100.05 89.5955 100.067 89.585L117.818 78.6446C117.844 78.6288 117.863 78.6045 117.873 78.5759C117.882 78.5473 117.882 78.5161 117.871 78.4878L98.1893 25.8324C98.183 25.8139 98.1726 25.797 98.1588 25.7831C98.1451 25.7692 98.1284 25.7586 98.1101 25.7521C98.0917 25.7457 98.0721 25.7435 98.0528 25.7458C98.0335 25.748 98.0149 25.7547 97.9985 25.7652V25.7652Z" fill="#3A3A84" stroke="white" stroke-width="2" stroke-miterlimit="10"/>
<path id="shadow-left" d="M85.3195 81.1748L99.6627 89.4909C99.6849 89.5051 99.711 89.5118 99.7371 89.5101C99.7633 89.5084 99.7883 89.4984 99.8085 89.4815C99.8287 89.4646 99.8431 89.4417 99.8496 89.416C99.8561 89.3903 99.8544 89.3633 99.8447 89.3387L90.1036 60.8524C90.0963 60.8259 90.0807 60.8026 90.0591 60.7859C90.0374 60.7693 90.011 60.7603 89.9837 60.7603C89.9565 60.7603 89.93 60.7693 89.9084 60.7859C89.8867 60.8026 89.8711 60.8259 89.8639 60.8524L85.2485 81.0046C85.2406 81.0203 85.2362 81.0375 85.2356 81.0551C85.235 81.0726 85.2381 81.0901 85.2449 81.1063C85.2517 81.1225 85.2618 81.137 85.2747 81.1489C85.2876 81.1607 85.3029 81.1695 85.3195 81.1748V81.1748Z" fill="white" stroke="white" stroke-width="2" stroke-miterlimit="10"/>
<path id="shadow-right" d="M20.3358 91.4882L34.6302 81.8689L29.1627 55.9353C29.1573 55.9067 29.1421 55.8808 29.1199 55.8622C29.0976 55.8437 29.0696 55.8335 29.0407 55.8335C29.0118 55.8335 28.9838 55.8437 28.9615 55.8622C28.9392 55.8808 28.9241 55.9067 28.9186 55.9353L20.145 91.3494C20.1374 91.3744 20.1378 91.4012 20.1461 91.4261C20.1543 91.4509 20.1701 91.4724 20.1911 91.4877C20.2122 91.503 20.2375 91.5113 20.2634 91.5114C20.2893 91.5115 20.3147 91.5034 20.3358 91.4882Z" fill="white" stroke="white" stroke-width="2" stroke-miterlimit="10"/>
<path id="face-top-left" d="M40.9808 1.00941L19.3417 9.96594C19.3176 9.97546 19.2969 9.9921 19.2824 10.0137C19.2678 10.0352 19.26 10.0607 19.26 10.0868C19.26 10.113 19.2678 10.1385 19.2824 10.16C19.2969 10.1816 19.3176 10.1982 19.3417 10.2078L37.9808 19.1195C37.998 19.1282 38.017 19.1327 38.0362 19.1327C38.0555 19.1327 38.0745 19.1282 38.0917 19.1195L58.7456 9.17328C58.7681 9.16228 58.787 9.14511 58.8003 9.12372C58.8136 9.10234 58.8207 9.07761 58.8207 9.05237C58.8207 9.02713 58.8136 9.0024 58.8003 8.98102C58.787 8.95963 58.7681 8.94246 58.7456 8.93146L41.0828 1.01389C41.0672 1.0056 41.0499 1.0009 41.0323 1.00012C41.0146 0.999348 40.997 1.00252 40.9808 1.00941V1.00941Z" fill="#3A3A84" stroke="white" stroke-width="2" stroke-miterlimit="10"/>
<path id="face-top-right" d="M79.182 17.2118L57.4364 27.0639C57.4123 27.0735 57.3916 27.0901 57.377 27.1117C57.3625 27.1332 57.3547 27.1587 57.3547 27.1849C57.3547 27.211 57.3625 27.2365 57.377 27.258C57.3916 27.2796 57.4123 27.2962 57.4364 27.3058L76.9053 36.6116C76.9233 36.6203 76.943 36.6249 76.963 36.6249C76.983 36.6249 77.0027 36.6203 77.0207 36.6116L97.8787 25.819C97.9012 25.808 97.9202 25.7908 97.9335 25.7694C97.9468 25.748 97.9538 25.7233 97.9538 25.6981C97.9538 25.6728 97.9468 25.6481 97.9335 25.6267C97.9202 25.6053 97.9012 25.5882 97.8787 25.5772L79.2929 17.2118C79.2571 17.1984 79.2177 17.1984 79.182 17.2118V17.2118Z" fill="#3A3A84" stroke="white" stroke-width="2" stroke-miterlimit="10"/>
<path id="shadow-top" d="M58.8876 9.10611L38.1272 19.0837C38.1016 19.0953 38.0806 19.1154 38.0677 19.1406C38.0548 19.1658 38.0507 19.1947 38.0562 19.2225L47.9083 66.9294C47.9155 66.9559 47.9311 66.9793 47.9528 66.9959C47.9744 67.0126 48.0009 67.0216 48.0281 67.0216C48.0553 67.0216 48.0818 67.0126 48.1034 66.9959C48.1251 66.9793 48.1407 66.9559 48.1479 66.9294L57.1701 27.2476C57.174 27.2285 57.1825 27.2108 57.1949 27.1959C57.2073 27.181 57.2232 27.1695 57.2411 27.1625L64.7145 23.7724C64.7434 23.7587 64.766 23.7344 64.7775 23.7044C64.7891 23.6743 64.7888 23.641 64.7766 23.6112L59.0562 9.17328C59.05 9.15734 59.0405 9.14287 59.0285 9.13075C59.0165 9.11863 59.0021 9.10913 58.9863 9.10284C58.9705 9.09654 58.9536 9.09358 58.9366 9.09415C58.9196 9.09471 58.9029 9.09878 58.8876 9.10611Z" fill="white" stroke="white" stroke-width="2" stroke-miterlimit="10"/>
</g>
</svg>
